<svg width="174" height="40" viewBox="0 0 174 40" fill="none" xmlns="http://www.w3.org/2000/svg">
<path d="M82.5139 32.4316C81.5111 32.933 80.6196 33.5125 79.6391 33.8505C76.0845 35.0762 72.9868 33.2376 72.2811 29.553C71.2782 24.3048 75.3379 17.5968 80.4488 16.059C82.5696 15.4202 84.6125 15.7285 86.4065 16.9208C90.5108 19.647 92.7839 23.4579 92.7431 28.4648C92.7282 30.0768 92.1971 31.5588 91.0271 32.7362C89.4522 34.3222 86.8559 34.675 84.5605 33.6016C83.8399 33.2636 83.1714 32.8142 82.5102 32.4353L82.5139 32.4316Z" fill="#FFA903"/>
<path d="M11.868 24.5271C11.7268 25.3962 11.6488 26.128 11.4817 26.8374C11.2551 27.8068 10.5754 28.4011 9.61342 28.5385C7.1917 28.8802 5.34942 28.5088 5.17856 25.4185C5.02627 22.6105 5.36799 19.7728 5.53142 16.95C5.55742 16.4857 5.5797 16.2182 5.02256 16.0957C3.81913 15.832 3.13199 15.0185 2.9797 13.8077C2.8497 12.7788 3.48856 11.4751 4.37999 10.9811C6.19627 9.98196 8.19456 9.77767 10.2077 9.7331C11.5003 9.70339 12.804 9.76282 14.0928 9.89282C17.874 10.2754 20.2326 12.6971 20.4108 16.4894C20.4703 17.73 20.318 19.0262 20.0023 20.2297C19.2446 23.1342 16.4031 24.9542 13.3463 24.6534C12.8597 24.6051 12.3731 24.5642 11.8606 24.5197L11.868 24.5271ZM11.3443 17.6594C11.686 18.1497 10.62 19.2528 11.8197 19.5314C12.5737 19.706 13.48 19.5202 14.2488 19.2788C15.2777 18.9594 15.6788 18.0642 15.5006 16.9982C15.2888 15.7502 14.0074 15.0037 12.2208 15.1114C10.8317 15.1931 11.5894 16.3111 11.3517 16.95C11.2923 17.1134 11.3443 17.314 11.3443 17.6594Z" fill="#181207"/>
<path d="M106.516 18.5952C106.861 19.7244 107.054 20.6975 107.455 21.5778C107.931 22.6178 108.733 22.7589 109.654 22.0755C110.148 21.7115 110.59 21.2732 111.047 20.8572C112.804 19.2675 114.721 19.1969 116.039 20.6789C117.425 22.2352 117.231 24.8761 115.627 26.2689C114.215 27.4946 112.496 28.0146 110.698 28.2041C109.547 28.3266 108.332 28.3749 107.207 28.1521C104.777 27.6766 103.281 26.0386 102.519 23.7469C100.889 18.8404 103.132 13.0164 107.548 10.6429C109.086 9.81836 110.746 9.52864 112.481 9.69579C114.353 9.87407 115.56 10.9438 116.165 12.6412C116.812 14.4538 116.745 16.2329 115.393 17.7669C114.598 18.6695 113.551 18.8478 112.425 18.6212C111.675 18.4726 111.285 17.9229 111.114 17.2135C111.014 16.7938 110.958 16.3666 110.854 15.9469C110.683 15.2375 110.293 14.7064 109.543 14.5392C108.752 14.3646 108.039 14.6766 107.719 15.3378C107.21 16.3964 106.891 17.5441 106.516 18.5952Z" fill="#181207"/>
<path d="M150.01 25.077C149.769 25.5487 149.624 25.8422 149.468 26.1319C148.205 28.4867 145.471 28.8582 143.607 26.9082C142.31 25.5487 141.839 23.8216 141.597 22.0313C141.33 20.0553 141.322 18.0682 142.199 16.2259C142.485 15.6279 143.023 15.0299 143.603 14.7216C145.051 13.9564 146.415 14.7884 146.422 16.419C146.429 17.5222 146.169 18.6216 146.14 19.7284C146.117 20.5159 146.181 21.3293 146.385 22.087C146.567 22.763 147.143 22.8299 147.547 22.2467C147.837 21.8307 147.989 21.3107 148.145 20.8167C148.313 20.2893 148.365 19.7247 148.547 19.2084C148.788 18.5213 149.245 18.0347 150.047 18.057C150.812 18.0793 151.329 18.4842 151.581 19.1899C151.811 19.8287 151.986 20.4824 152.194 21.1287C152.291 21.4222 152.361 21.749 152.547 21.9756C152.762 22.2356 153.111 22.581 153.364 22.5513C153.617 22.5216 154.01 22.0833 154.018 21.8122C154.062 20.4973 153.999 19.175 153.973 17.8564C153.966 17.4293 153.899 16.991 153.958 16.5713C154.155 15.1599 154.716 14.6213 156.02 14.5136C157.342 14.4022 158.059 14.8924 158.479 16.2482C159.11 18.2947 158.735 20.3487 158.412 22.3842C158.274 23.2607 158.118 24.1967 157.691 24.9507C157.175 25.8607 156.499 26.7967 155.652 27.3762C153.605 28.7839 151.529 28.1264 150.411 25.9127C150.303 25.6973 150.196 25.4782 149.999 25.0733L150.01 25.077Z" fill="#181207"/>
<path d="M42.1802 25.1072C41.9425 25.5604 41.794 25.8612 41.638 26.1547C40.4011 28.4612 37.6822 28.8475 35.84 26.9532C34.5548 25.6309 34.0422 23.9447 33.8082 22.1841C33.5371 20.1189 33.4517 18.0241 34.4508 16.1187C34.7888 15.4761 35.4945 14.8707 36.1705 14.5995C37.4557 14.0907 38.5774 14.8818 38.6034 16.2635C38.6257 17.3964 38.3768 18.5292 38.3359 19.6658C38.3099 20.4235 38.3917 21.1924 38.5142 21.9427C38.5551 22.1878 38.8782 22.5704 39.0677 22.5704C39.3425 22.5704 39.7065 22.3289 39.8625 22.0838C40.1002 21.7049 40.2191 21.2407 40.3491 20.8024C40.5125 20.2415 40.5088 19.5878 40.8134 19.1272C41.1142 18.6704 41.6639 18.2209 42.1802 18.1021C42.9008 17.9349 43.4765 18.4252 43.7514 19.1235C43.9742 19.6955 44.1265 20.2972 44.3197 20.8804C44.4348 21.2295 44.5091 21.6195 44.7208 21.9055C44.9325 22.1952 45.2928 22.3772 45.5862 22.6038C45.8165 22.3029 46.1917 22.0281 46.2437 21.7012C46.3625 20.9807 46.3551 20.2341 46.3254 19.4987C46.2919 18.6072 46.1099 17.7158 46.1285 16.8281C46.1582 15.3869 46.7822 14.7072 48.0525 14.5364C49.4602 14.3507 50.2922 14.8484 50.6748 16.2709C51.3174 18.6667 50.9571 21.0624 50.3702 23.3987C50.0991 24.4721 49.6385 25.6012 48.9477 26.4481C46.8899 28.9701 43.9074 28.5429 42.4848 25.6384C42.4217 25.5047 42.3399 25.3821 42.1765 25.1035L42.1802 25.1072Z" fill="#181207"/>
<path d="M57.8286 14.157C59.0617 14.3947 60.1463 14.5025 61.1677 14.8219C62.6832 15.2936 63.1326 17.4739 61.9329 18.5102C61.5986 18.7962 60.9857 18.837 60.4954 18.8482C59.734 18.8668 58.9577 18.6736 58.2074 18.7553C57.8509 18.7925 57.5389 19.253 57.2046 19.5205C57.4943 19.8027 57.7432 20.1705 58.0886 20.3413C58.5492 20.5716 59.084 20.6645 59.5929 20.787C61.0712 21.1399 62.1483 21.8827 62.2894 23.5319C62.4306 25.2033 61.892 26.663 60.436 27.4988C58.1183 28.8322 55.6594 28.9176 53.2637 27.6399C52.1123 27.027 51.7074 25.9499 51.8263 24.6648C51.9154 23.7028 52.4837 23.1605 53.3529 22.9042C54.534 22.5587 55.6112 22.659 56.4692 23.673C56.7254 23.9739 57.0114 24.375 57.3494 24.453C57.7283 24.5422 58.1814 24.3193 58.6012 24.2339C58.512 23.881 58.538 23.3982 58.3114 23.2087C57.8806 22.841 57.3272 22.5885 56.7849 22.3842C55.7783 21.9979 54.7272 21.723 53.728 21.3182C52.3054 20.7425 51.6666 19.6282 51.7112 18.1053C51.752 16.6233 52.4912 15.4273 53.8989 14.9965C55.2137 14.5953 56.5954 14.4096 57.8286 14.1533V14.157Z" fill="#181207"/>
<path d="M165.416 14.1494C166.72 14.3834 167.868 14.4874 168.949 14.8106C170.442 15.2563 170.939 17.3251 169.821 18.4208C169.495 18.7403 168.845 18.8183 168.332 18.848C167.481 18.8963 166.62 18.7551 165.773 18.8183C165.502 18.8406 165.063 19.2454 165.056 19.4906C165.045 19.7468 165.401 20.1331 165.691 20.2668C166.215 20.512 166.805 20.616 167.37 20.7794C169.313 21.3403 169.94 22.0014 170.13 23.684C170.301 25.2068 169.368 27.0268 167.968 27.6917C165.825 28.7057 163.63 28.8357 161.427 27.8403C160.023 27.2051 159.347 25.8197 159.689 24.3303C159.886 23.4686 160.528 23.0674 161.312 22.8631C162.322 22.5957 163.277 22.6737 164.068 23.4537C164.376 23.7583 164.64 24.1074 164.974 24.3748C165.457 24.7611 166.051 24.7426 166.345 24.2374C166.486 23.9923 166.271 23.3348 166.007 23.112C165.58 22.748 164.993 22.5474 164.451 22.3431C163.414 21.9494 162.333 21.6597 161.319 21.214C160.012 20.642 159.492 19.524 159.522 18.1423C159.551 16.7606 160.131 15.6091 161.438 15.1337C162.753 14.6546 164.168 14.4466 165.42 14.1494H165.416Z" fill="#181207"/>
<path d="M136.315 25.4078C136.356 24.9101 136.512 24.2378 135.487 24.1746C134.009 24.0818 133.4 24.3975 133.277 25.4301C133.259 25.5824 133.247 25.7384 133.229 25.8906C132.999 27.8964 131.193 28.6875 129.6 27.3875C129.177 27.0421 128.872 26.2472 128.913 25.6864C129.173 21.9312 130.317 18.4769 132.973 15.7098C134.744 13.8638 137.147 14.2055 138.525 16.3598C139.933 18.5586 140.249 21.0806 140.65 23.5766C140.761 24.2749 140.847 24.9881 140.825 25.6901C140.784 26.9826 140 27.9038 138.904 28.0784C137.173 28.3532 136.237 27.4432 136.315 25.4041V25.4078ZM134.963 21.8606C135.58 21.6712 136.568 22.1689 136.635 20.9692C136.691 19.9886 135.963 18.9858 135.242 18.9709C134.462 18.9561 133.604 20.1001 133.608 21.1178C133.611 22.2098 134.462 21.6786 134.967 21.8606H134.963Z" fill="#181207"/>
<path d="M28.459 25.4741C28.5185 24.9467 28.6819 24.2447 27.6048 24.1778C26.1116 24.0812 25.5062 24.3932 25.3873 25.4295C25.3688 25.5818 25.3613 25.7378 25.3465 25.8901C25.1645 27.5615 24.7559 27.9775 23.363 27.9107C21.6842 27.8327 20.9599 27.1789 21.0379 25.5892C21.2125 22.0681 22.427 18.8998 24.6445 16.1661C25.1719 15.5161 26.0336 15.0258 26.8396 14.7249C28.225 14.2087 29.3913 14.6432 30.2642 15.8392C30.6802 16.4075 31.0665 17.0241 31.3302 17.6741C32.359 20.2147 32.8122 22.8852 32.9199 25.6078C32.957 26.5549 32.5893 27.3869 31.6979 27.8364C30.8808 28.2524 30.0228 28.2524 29.2168 27.7584C28.407 27.2607 28.3699 26.4584 28.4553 25.4704L28.459 25.4741ZM27.107 21.8564C27.7385 21.6781 28.7339 22.1461 28.7413 20.9167C28.7488 19.8692 28.043 18.9481 27.3039 18.9704C26.5313 18.9927 25.651 20.1775 25.7068 21.1618C25.7625 22.2204 26.613 21.6632 27.1108 21.8564H27.107Z" fill="#181207"/>
<path d="M122.814 24.5351C123.238 24.3382 123.498 24.2045 123.773 24.0931C124.315 23.8739 124.85 23.6176 125.411 23.4691C126.941 23.0605 127.955 23.5248 128.349 24.7468C128.843 26.2882 128.278 27.6328 126.822 28.1231C126.101 28.3645 125.314 28.4796 124.553 28.4982C123.29 28.5316 122.019 28.4759 120.757 28.3979C119.464 28.3199 119.015 27.9039 118.803 26.6188C118.313 23.6585 118.105 20.6871 118.469 17.6933C118.762 15.2902 120.136 14.1313 122.365 14.3913C124.029 14.5845 124.794 15.5539 124.478 17.1993C124.293 18.1651 123.966 19.1048 123.724 20.0593C123.446 21.1625 123.178 22.2693 122.929 23.3836C122.859 23.6993 122.866 24.0336 122.818 24.5388L122.814 24.5351Z" fill="#181207"/>
<path d="M99.2874 16.9803C99.2354 17.2589 99.1946 17.7566 99.0423 18.2209C98.6708 19.3501 97.928 20.1486 96.7171 20.3603C95.5843 20.5572 94.6408 20.1226 93.9388 19.2498C92.7317 17.7492 92.5014 16.0703 93.3 14.3209C94.1617 12.4341 96.2417 12.0998 97.8054 13.5038C98.7897 14.3878 99.2243 15.4835 99.2874 16.9841V16.9803Z" fill="#FFA903"/>
<path d="M69.3198 20.3048C68.7367 20.0039 68.0347 19.8256 67.5964 19.3836C65.7393 17.5153 66.1738 14.1242 68.7293 12.6682C70.189 11.8362 72.0127 12.7648 72.6256 14.503C73.5764 17.1922 71.8864 20.1488 69.3198 20.3085V20.3048Z" fill="#FFA903"/>
<path d="M81.2622 9.20969C81.2808 11.1114 79.8434 12.586 77.9677 12.5897C76.1254 12.5897 74.6954 11.1708 74.6731 9.30626C74.6508 7.54197 76.1848 5.96712 77.9417 5.95226C79.7617 5.9374 81.2474 7.3934 81.2659 9.2134L81.2622 9.20969Z" fill="#FFA903"/>
<path d="M84.6709 9.45857C84.6635 7.594 86.0044 6.23457 87.8466 6.23829C89.5961 6.23829 91.0186 7.66086 91.0261 9.41772C91.0335 11.2043 89.6666 12.6306 87.9098 12.6714C86.1344 12.7123 84.6784 11.2674 84.6709 9.46229V9.45857Z" fill="#FFA903"/>
</svg>
