<svg width="109" height="100" viewBox="0 0 109 100" fill="none" xmlns="http://www.w3.org/2000/svg">
<g clip-path="url(#clip0_1820_12448)">
<path d="M-16.5986 103.64H132.102V-6.89648C132.167 -6.86583 132.281 -6.83518 132.285 -6.8007C132.3 -6.54783 132.293 -6.29112 132.293 -6.03442V103.831C82.9487 103.831 33.6045 103.831 -15.7396 103.824C-16.026 103.824 -16.3123 103.705 -16.5986 103.64Z" fill="#FEFEFE"/>
<path d="M37.9305 94.3637C36.5905 94.0342 35.1894 93.8618 33.9257 93.3446C30.8754 92.0955 27.825 90.8235 24.9006 89.3063C21.3768 87.4787 18.1738 85.1453 15.1807 82.5055C11.6493 79.3905 8.59508 75.8733 6.23191 71.8235C4.82698 69.4212 3.6893 66.8427 2.65088 64.2526C0.638933 59.2373 0.115904 53.9538 0.394599 48.6013C0.700017 42.7086 2.36837 37.1683 5.07895 31.9308C6.91528 28.3791 9.1792 25.1223 11.8478 22.1683C15.1387 18.5285 18.8419 15.3752 22.9688 12.6971C28.8596 8.87331 35.2047 6.16066 41.9811 4.39821C46.2264 3.29476 50.5214 2.44036 54.9003 2.46334C58.9586 2.48633 62.9786 3.15683 66.8804 4.29093C70.1331 5.23729 73.4163 6.17216 76.5125 7.52082C79.8721 8.98059 83.1133 10.7699 86.2401 12.6856C88.6338 14.1492 90.8633 15.9269 93.0089 17.7507C96.8305 20.9959 100.018 24.812 102.656 29.0994C105.264 33.3369 107.154 37.8618 108.173 42.7277C109.918 51.0725 109.097 59.1913 105.691 66.9921C103.523 71.9576 100.442 76.3407 96.6243 80.1951C92.2645 84.5974 87.309 88.1607 81.6817 90.7124C78.5397 92.1377 75.2755 93.2909 72.061 94.5591C71.893 94.6243 71.6945 94.6128 71.5075 94.6358C71.6067 91.3637 71.4693 88.061 71.874 84.8312C72.313 81.3216 73.2483 77.8733 73.9928 74.402C74.0386 74.1913 74.2371 73.9806 74.4127 73.8312C75.0694 73.2833 75.7604 72.7814 76.4171 72.2296C80.9449 68.4289 83.8998 63.6626 85.1482 57.858C85.6369 55.5898 85.6483 53.3178 84.9535 51.0917C84.755 50.4519 84.6786 49.9423 84.9573 49.2986C85.1864 48.7737 85.1368 48.1223 85.2093 47.5285V47.5131C85.3887 46.9691 85.5758 46.425 85.7629 45.881C85.7705 45.4365 85.7743 44.9882 85.7819 44.5438C85.717 44.0572 85.7018 43.5515 85.5491 43.0879C85.5032 42.9461 85.0833 42.9269 84.8351 42.8503C84.5794 43.1607 84.3274 43.471 84.0716 43.7814C83.9914 43.8925 83.9074 43.9997 83.8273 44.1109L83.289 44.6779C82.5216 45.2335 81.7695 45.812 80.9792 46.3331C80.7578 46.4787 80.4028 46.5361 80.147 46.4787C78.2801 46.0687 76.44 46.0764 74.6304 46.7545C73.8783 47.0342 73.1262 47.3139 72.1221 47.6856C72.4924 46.7622 72.7826 46.0802 73.0422 45.3905C74.6456 41.1147 73.6034 35.9001 69.5757 33.1223C69.2435 32.8925 69.0679 32.4365 68.8198 32.084V32.0917C68.4724 30.72 68.1555 29.3407 67.7546 27.9882C67.5714 27.3714 67.1132 27.3905 66.7773 27.881C66.1359 28.8197 65.4716 29.7545 64.9715 30.7699C64.6966 31.3254 64.4179 31.5285 63.8338 31.5055C61.0889 31.3944 58.7486 32.4135 56.7252 34.2028C56.0266 34.8197 55.4463 35.5706 54.8354 36.2373C54.5835 36.0764 54.488 36.0419 54.4307 35.9729C51.9569 33.153 49.0554 31.2411 45.1002 31.5093C44.8902 31.5246 44.5925 31.1683 44.4397 30.9193C43.8365 29.9193 43.3021 28.8771 42.6721 27.8963C42.5538 27.7124 41.9888 27.5936 41.817 27.7124C41.0611 28.245 40.5915 30.5859 40.9771 31.5132L40.9962 31.7699C40.8091 31.9078 40.5915 32.0189 40.4426 32.1875C40.1028 32.5745 39.8661 33.084 39.4614 33.3714C38.0374 34.3791 37.083 35.743 36.4378 37.3177C35.1703 40.4059 35.4414 43.4595 36.7776 46.4672C36.9188 46.7814 37.0066 47.1223 37.1822 47.6319C36.7547 47.5055 36.5447 47.471 36.3576 47.3791C34.6435 46.5476 32.8377 46.0381 30.9364 46.2488C29.3483 46.425 27.8823 46.4404 26.7407 45.0879C26.6491 44.9768 26.4621 44.9461 26.317 44.881C26.1261 44.6971 25.9314 44.5132 25.7405 44.3292L24.2287 42.5438L23.9004 42.6587C23.8087 43.1607 23.7171 43.6587 23.6255 44.1607C23.6217 44.2909 23.6178 44.4174 23.6102 44.5476V45.6894L23.6331 46.2641L24.0073 47.5093V47.5246C24.0989 48.0266 24.1103 48.5745 24.3165 49.0266C24.6563 49.7622 24.683 50.402 24.4272 51.199C24.0912 52.2411 23.8851 53.3637 23.8584 54.4595C23.8011 57.0342 24.4539 59.4863 25.4084 61.8618C27.0653 65.9844 29.6193 69.4442 33.0056 72.2986C34.1853 73.2948 35.5483 74.0534 35.8269 75.881C36.3576 79.3867 37.2395 82.8427 37.6747 86.3599C38.0031 88.9959 37.8618 91.6932 37.9305 94.3637ZM71.4884 21.2143C71.3051 21.5821 71.1104 21.9423 70.9386 22.3139C70.3812 23.517 70.6065 24.0955 71.8243 24.5974C72.4924 24.8733 73.1605 25.1492 73.8401 25.402C75.1687 25.8925 75.707 25.5515 75.8597 24.1377C76.5354 24.061 76.9973 23.6051 76.9134 23.0112C76.8446 22.5438 76.4018 22.061 76.0086 21.7239C75.6497 21.4174 75.1305 21.2948 74.5998 21.0534C75.5352 19.176 76.4018 17.4097 77.2951 15.6549C77.6502 14.9538 77.4707 14.4135 76.8714 14.0036C76.23 13.563 75.7146 13.8848 75.3061 14.3982C75.0121 14.7699 74.7831 15.1913 74.5235 15.5936C74.3517 15.7239 74.1035 15.8197 74.0195 15.9921C73.1605 17.7239 72.3244 19.471 71.4845 21.2143H71.4884ZM8.9425 31.1645L8.95013 31.153C8.51491 31.9691 8.04915 32.7737 7.6521 33.6089C7.1787 34.6128 7.35814 35.0994 8.33548 35.6243C10.3741 36.7124 12.4204 37.7967 14.4668 38.8771C15.7342 39.5438 16.4214 39.1568 16.5627 37.7086C16.933 37.3331 17.5057 37.0112 17.6126 36.5706C17.6927 36.2411 17.1964 35.7545 16.9216 35.3637C16.8185 35.222 16.6199 35.1223 16.4482 35.0572C15.6464 34.766 15.5472 34.3561 15.9175 33.5476C16.6505 31.9346 15.8526 30.0342 14.1613 28.9997C12.3708 27.904 11.3897 28.0534 9.93892 29.6932C9.60678 30.0687 9.38154 30.5361 9.10666 30.9614L8.93868 31.1722L8.9425 31.1645ZM103.29 39.6626C104.004 39.5132 104.37 39.0572 104.443 38.3446C104.615 36.6626 102.828 34.6626 101.141 34.5745C99.6365 34.4978 98.9493 35.4633 98.3537 36.6051C98.0788 36.8427 97.8078 37.0802 97.5329 37.3177C96.6167 36.448 95.7424 36.4519 95.269 37.3484C95.1201 37.6243 95.0285 37.9308 94.9101 38.2258C94.62 38.4327 94.1275 38.5974 94.0817 38.8465C93.887 39.9155 93.6465 41.0266 93.7686 42.084C93.9023 43.2603 94.9292 43.9499 96.0516 43.9882C97.4107 44.0342 98.5102 43.3369 98.934 42.153C99.7319 41.4212 100.48 40.6587 100.648 39.517C100.835 39.9691 100.912 40.5361 101.228 40.8503C101.996 41.6128 103.004 41.0074 103.286 39.6664L103.29 39.6626ZM39.0377 19.9155C38.988 20.1722 38.9384 20.425 38.8888 20.6817C38.2283 20.743 37.7549 21.1262 37.7893 21.7545C37.816 22.222 38.0756 22.8158 38.4306 23.0955C39.3049 23.789 40.3204 24.2258 41.5001 24.0955C42.5767 23.9768 43.2715 23.4327 43.6189 22.3752C45.0735 21.2373 45.482 19.9193 44.5199 18.3982C44.0389 17.6358 43.0577 17.1913 42.3018 16.6013L42.7179 15.3216C43.4204 15.1913 43.8709 14.8273 43.8709 14.0572C43.8709 13.2794 43.3631 12.9614 42.6989 12.7852C40.958 12.3254 39.1064 13.3292 38.297 15.1837C38.0031 15.4404 37.606 15.6434 37.4266 15.9653C36.5409 17.5706 37.1784 19.0764 39.0415 19.9155H39.0377ZM69.171 23.471C69.3008 23.3829 69.4344 23.2948 69.5604 23.2066C70.3392 22.6664 70.5836 22.0036 70.1942 21.3637C69.7513 20.6319 69.1328 20.7162 68.4533 21.0227C67.5256 21.4442 66.5979 21.3024 65.8839 20.6358C65.128 19.9269 65.3609 19.0151 65.716 18.1607C66.8384 17.9231 67.8806 18.0342 68.877 18.6817C69.9575 19.3829 70.7668 18.9231 70.9348 17.5745C71.3395 17.1377 72.0267 16.72 72.0648 16.2526C72.0992 15.835 71.4502 15.3254 71.0417 14.9193C70.8317 14.7086 70.4881 14.6166 70.1942 14.5132C67.4225 13.5361 65.2655 14.2871 63.5131 16.8312C62.9901 17.7775 62.3067 18.6702 61.9822 19.6779C61.4325 21.3791 61.841 22.9806 63.265 24.1338C64.6623 25.2679 66.2772 25.5361 67.9913 24.8886C68.6365 24.6434 69.1939 24.2948 69.1672 23.471H69.171ZM83.9113 28.9576C84.6099 28.881 84.9459 28.4672 85.0833 27.789C85.6101 25.176 86.1981 22.5783 86.6753 19.9576C86.7555 19.5208 86.5226 18.8005 86.1904 18.5745C85.8621 18.3522 85.1138 18.4135 84.7359 18.6511C82.5865 19.9959 80.4753 21.3982 78.4023 22.8618C77.9976 23.1453 77.8334 23.7699 77.5586 24.2373C76.459 24.7469 76.1193 25.4748 76.6003 26.3101C77.0164 27.0342 77.5509 27.0725 78.6313 26.3522C79.1582 25.9997 79.5132 26.0074 80.0515 26.4059C81.0747 27.1568 81.9299 27.8235 81.6015 29.3561C81.4068 30.2603 82.4185 30.8695 83.1821 30.3599C83.5638 30.1032 83.6746 29.4404 83.9113 28.9614V28.9576ZM27.4738 28.6587C28.2831 28.4978 28.558 27.9308 28.5847 27.1798C28.8787 26.9653 29.3177 26.8082 29.4322 26.5208C29.6957 25.8695 29.7988 25.1492 29.9667 24.4595C30.5012 25.2373 30.9784 26.0725 31.6007 26.7775C31.9023 27.1185 32.4941 27.4365 32.914 27.3905C33.5821 27.3139 33.9906 26.7699 33.899 26.0074C34.7236 25.72 35.0825 25.1377 35.0634 24.2641C35.052 23.7928 35.1245 23.3177 35.1779 22.8503C35.3994 20.904 35.6628 18.9614 35.8155 17.0112C35.8422 16.6549 35.4719 16.0074 35.1932 15.9461C34.7542 15.8541 34.1701 16.0534 33.7654 16.3139C33.5134 16.4787 33.4829 16.9844 33.3531 17.3369C33.0324 17.6358 32.601 17.8771 32.4254 18.2411C32.2154 18.6741 32.223 19.2143 32.139 19.7086C31.7343 18.9959 31.4137 18.2181 30.9021 17.5974C30.589 17.2181 29.9935 16.9116 29.5086 16.8886C29.2223 16.8733 28.894 17.4633 28.6153 17.8082C28.5045 17.9461 28.4778 18.1568 28.4129 18.3331C28.1151 18.563 27.7066 18.7354 27.5501 19.0381C27.3287 19.471 27.2981 20.0036 27.1874 20.4902C26.966 20.0342 26.7102 19.5898 26.527 19.1147C26.2979 18.5208 26.0574 17.9423 25.29 18.0304C24.4501 18.1262 24.1027 18.6817 24.1332 19.4978C23.0337 19.9308 22.7627 20.3791 23.1826 21.4518C23.8736 23.2181 24.6563 24.9461 25.4007 26.6894C23.7095 25.5361 22.0144 24.3867 20.327 23.2258C19.0824 22.3676 18.2272 22.766 18.0898 24.2794C17.2957 24.4442 16.8299 24.8771 16.9941 25.743C17.4904 28.3522 17.9943 30.9576 18.5135 33.5591C18.6701 34.3369 19.1435 34.8388 19.9719 34.7277C20.7813 34.6243 21.0523 34.0495 20.9493 33.2718C22.0869 32.8733 22.2015 32.6358 21.9495 31.1951C22.8009 30.5936 23.5682 30.5706 24.5188 31.1722C25.5 31.7967 26.2368 31.1913 26.3132 29.8848C27.0233 29.7852 27.3859 29.3522 27.4738 28.6587ZM49.5517 12.7507C48.4636 13.0534 48.1582 13.471 48.4522 14.7507C48.9523 16.9499 49.5631 19.1223 50.132 21.3063C50.3381 22.0955 50.8115 22.517 51.6629 22.3676C52.5219 22.2181 52.6746 21.6128 52.6059 20.8733C53.8352 20.72 53.8237 19.835 53.7474 18.9155C54.1597 19.2909 54.5987 19.6434 54.9843 20.0496C55.4272 20.517 55.9006 20.8273 56.5534 20.5706C57.2024 20.3139 57.3933 19.7775 57.3551 19.1262C58.2141 18.9499 58.5501 18.402 58.5157 17.5476C58.4394 15.6166 58.3821 13.6856 58.321 11.7545C58.2867 10.6549 57.9278 10.1683 57.1261 10.1453C56.332 10.1262 55.9502 10.5859 55.8509 11.6779C54.6178 11.8043 54.6904 12.7392 54.6674 13.6128C53.6825 12.9346 52.6899 12.2679 51.7087 11.5783C50.7123 10.8771 49.4677 11.2756 49.5555 12.7507H49.5517ZM91.4894 26.5936C91.8559 26.0687 92.2263 25.54 92.5928 25.0151C92.7417 24.8541 92.8829 24.6817 93.0433 24.5285C93.5777 24.0227 94.0588 23.4978 93.4365 22.7507C92.8676 22.0687 92.127 22.084 91.3673 22.7814C90.4854 23.5936 89.5615 24.3752 88.7636 25.2641C87.8015 26.3331 86.954 27.5055 86.0606 28.6358C85.362 29.1223 84.6939 29.6932 84.9955 30.6358C85.3238 31.6511 86.2553 31.3714 87.0227 31.3369C87.2098 31.3292 87.393 31.2641 87.5801 31.2258C88.63 31.0189 89.6837 30.812 90.7335 30.6013C90.1571 31.425 89.5806 32.2488 89.0079 33.0725C88.8018 33.3063 88.5842 33.5323 88.3933 33.7775C87.9886 34.2909 87.6297 34.8273 88.1146 35.4863C88.588 36.1262 89.195 36.0994 89.8975 35.9193C92.1881 35.3292 94.4864 34.7699 96.7923 34.2335C97.6284 34.0381 98.1094 33.6473 97.9452 32.7239C98.6668 32.5438 99.2165 32.1837 99.0562 31.3407C98.892 30.4863 98.2545 30.2641 97.4642 30.3752C97.1511 30.4174 96.8381 30.4672 96.5289 30.5285C95.5973 30.72 94.6696 30.9193 93.4899 31.1683C94.4176 30.0266 95.2461 29.1453 95.8951 28.1453C96.17 27.72 96.2234 26.9959 96.0669 26.5132C95.9829 26.2564 95.2194 26.0764 94.7803 26.1109C93.6808 26.199 92.589 26.425 91.4933 26.5974L91.4894 26.5936Z" fill="#803CC7"/>
<path d="M40.969 31.5179C40.5834 30.5907 41.0568 28.2497 41.8089 27.7171C41.9807 27.5983 42.5457 27.7171 42.664 27.901C43.2978 28.8819 43.8284 29.924 44.4316 30.924C44.5805 31.173 44.8821 31.5294 45.0921 31.514C49.0473 31.2458 51.9449 33.1577 54.4226 35.9776C54.4799 36.0428 54.5753 36.0811 54.8273 36.242C55.4382 35.5753 56.0184 34.8244 56.7171 34.2075C58.7405 32.4221 61.0808 31.4029 63.8257 31.5102C64.4098 31.5332 64.6885 31.334 64.9634 30.7746C65.4635 29.7631 66.1278 28.8244 66.7692 27.8857C67.1051 27.3953 67.5633 27.3761 67.7465 27.993C68.1474 29.3493 68.4643 30.7286 68.8117 32.0964C68.5559 31.6558 68.2314 31.242 68.0634 30.7707C67.7771 29.9661 67.5862 29.1232 67.3571 28.2995H67.0784C66.8303 28.6826 66.5783 29.0619 66.3301 29.4412L65.9751 29.8819C65.8147 30.3838 65.6544 30.8819 65.4215 31.6137C66.6394 31.7861 67.7274 31.9393 68.8117 32.0888C69.0598 32.4412 69.2354 32.8972 69.5676 33.1271C73.5953 35.9048 74.6375 41.1194 73.0341 45.3953C72.7745 46.0888 72.4843 46.7707 72.114 47.6903C73.1181 47.3186 73.8702 47.0389 74.6222 46.7592C76.4319 46.0811 78.272 46.0734 80.1389 46.4834C80.3985 46.5409 80.7535 46.4834 80.9711 46.3378C81.7614 45.8167 82.5135 45.2382 83.2809 44.6826C83.2809 44.8895 83.2847 45.1002 83.2885 45.3071C82.7273 45.7861 82.1661 46.2612 81.6125 46.7324C82.5249 47.6022 83.3801 48.4183 84.2887 49.288C84.598 48.6903 84.8996 48.1117 85.2012 47.5294C85.1286 48.1232 85.1783 48.7707 84.9492 49.2995C84.6705 49.9432 84.7431 50.4527 84.9454 51.0926C85.6364 53.3186 85.6249 55.5907 85.1401 57.8589C83.8917 63.6635 80.9368 68.4298 76.4089 72.2305C75.7523 72.7784 75.0613 73.2842 74.4046 73.832C74.2252 73.9815 74.0267 74.1922 73.9847 74.4029C73.244 77.8742 72.3049 81.3225 71.8658 84.8321C71.4612 88.0658 71.5986 91.3684 71.4993 94.6366C69.1324 95.1807 66.7883 95.8704 64.3945 96.2458C57.0378 97.4068 49.7192 97.0236 42.4541 95.4412C40.9384 95.1117 39.4342 94.7248 37.9262 94.3646C37.8575 91.6941 37.9988 89.0006 37.6704 86.3608C37.2352 82.8474 36.3495 79.3876 35.8227 75.8819C35.5478 74.0581 34.181 73.2957 33.0014 72.2995C29.615 69.4451 27.061 65.9853 25.4041 61.8627C24.4496 59.4834 23.7968 57.0313 23.8541 54.4604C23.877 53.3646 24.087 52.242 24.4229 51.1999C24.6787 50.4029 24.652 49.7631 24.3122 49.0275C24.1022 48.5753 24.0946 48.0313 23.9991 47.5255C24.3695 48.1156 24.7398 48.7018 25.0338 49.1692C25.8737 48.2573 26.6983 47.3608 27.4962 46.4949C27.1602 46.1999 26.5799 45.6826 25.9958 45.1692C26.1027 45.0734 26.2058 44.9776 26.3089 44.8819C26.4501 44.9508 26.6372 44.9776 26.7326 45.0887C27.8741 46.4412 29.3363 46.4259 30.9283 46.2497C32.8296 46.0389 34.6353 46.5485 36.3495 47.3799C36.5366 47.4681 36.7466 47.5025 37.1741 47.6328C36.9985 47.1232 36.9069 46.7861 36.7695 46.4681C35.4332 43.4642 35.1622 40.4068 36.4297 37.3186C37.0749 35.7439 38.0293 34.3838 39.4533 33.3723C39.858 33.0849 40.0947 32.5715 40.4345 32.1884C40.5834 32.0198 40.801 31.9087 40.988 31.7707C40.9461 32.242 41.156 32.2727 41.5493 32.1539C42.3204 31.924 43.1031 31.7439 43.8819 31.5447L43.9353 31.3723C43.397 30.334 42.8587 29.2918 42.3243 28.2535L42.0112 28.334C41.6638 29.3953 41.3202 30.4566 40.9728 31.5179H40.969ZM61.1762 40.1462L61.2755 40.8129C61.2411 41.8091 61.5618 42.6213 62.249 43.3914C63.4325 44.7209 64.887 45.0198 66.4676 44.6137C68.2199 44.1616 69.2736 42.9048 69.5065 41.1002C69.7203 39.4642 69.1094 38.1807 67.7351 37.1692C66.6203 36.3455 65.4559 36.3761 64.2189 36.4987C62.7071 36.901 61.6534 37.7631 61.3327 39.3684L61.1762 40.1501V40.1462ZM28.1605 58.9585C28.4812 60.3991 29.4967 61.2152 30.8176 61.5064C32.2989 61.8282 33.6466 61.3723 34.6544 60.1539C36.2655 58.2114 36.5251 56.0581 35.6089 53.7363C35.0744 52.3799 33.5397 51.4221 32.0851 51.4106C29.825 51.3876 27.4504 54.4183 27.7291 57.3455C27.8703 57.8819 28.0154 58.4221 28.1567 58.9585H28.1605ZM67.9374 61.9738C67.8801 61.2114 67.8992 60.4374 67.758 59.6941C66.7806 54.4757 64.1159 50.4144 59.5155 47.6865C56.5797 45.947 53.5866 45.8474 50.5209 47.2918C45.115 49.8397 40.4307 57.1999 41.5531 64.1271C42.1181 67.6022 44.6034 70.3455 48.4021 70.219C50.5438 70.1501 52.4374 69.5255 54.1439 68.2382C54.3616 68.0734 54.8235 68.0619 55.0907 68.173C56.5071 68.7746 57.8433 69.698 59.3132 70.0275C62.0428 70.6405 64.574 70.0734 66.3798 67.675C67.6473 65.993 67.9641 64.0313 67.9374 61.9738ZM81.8569 57.0083L81.5858 56.9202C81.7652 54.7861 80.7268 53.2573 79.1386 52.0313C78.0391 51.1807 76.4662 51.1845 75.3209 51.9738C72.7134 53.7746 72.4805 57.8167 74.8399 60.2842C76.6075 62.1347 79.1844 62.0926 80.6695 60.0275C81.2804 59.1769 81.4713 58.0236 81.8569 57.0083ZM48.215 40.5677C48.4632 38.5868 46.3634 36.1884 44.0537 36.2957C41.7974 36.3991 39.8427 38.2458 39.8236 40.4949C39.8045 42.9317 41.5798 44.6826 43.9811 44.7784C46.4703 44.878 48.4135 42.4489 48.215 40.5715V40.5677ZM49.1007 73.9891L48.9671 74.311C49.3031 74.5639 49.6085 74.8895 49.9788 75.0619C52.7657 76.3608 55.6138 76.2995 58.4733 75.3301C58.8512 75.1999 59.233 74.9776 59.5155 74.698C59.6682 74.5485 59.7293 74.1347 59.63 73.9508C59.5537 73.8129 59.0955 73.7209 58.9199 73.8167C56.0528 75.4068 53.1322 75.0696 50.1773 74.1271C49.8375 74.0198 49.4596 74.0275 49.1007 73.9853V73.9891Z" fill="#FDFDFD"/>
<path d="M86.0565 28.6366C86.9536 27.5101 87.8012 26.3377 88.7594 25.2649C89.5573 24.376 90.4812 23.5944 91.3631 22.7822C92.1228 22.081 92.8635 22.0695 93.4323 22.7515C94.0584 23.4986 93.5736 24.0236 93.0391 24.5293C92.8787 24.6826 92.7375 24.8511 92.5886 25.0159C91.9854 25.5293 91.3822 26.0389 90.779 26.5523L90.9126 26.7592L91.4853 26.5944C92.581 26.422 93.669 26.196 94.7723 26.1078C95.2114 26.0734 95.9749 26.2534 96.0589 26.5101C96.2154 26.9967 96.162 27.7209 95.8871 28.1423C95.2381 29.1423 94.4097 30.0236 93.4819 31.1653C94.6616 30.9163 95.5893 30.717 96.5209 30.5255C96.8301 30.4603 97.1432 30.4144 97.4562 30.3722C98.2465 30.2649 98.8802 30.4872 99.0482 31.3377C99.2124 32.1768 98.6588 32.5408 97.9372 32.7209C95.5741 33.2803 93.2109 33.8358 90.8515 34.399C89.6986 34.6711 89.1565 34.2879 88.9999 33.0734C89.5764 32.2496 90.1529 31.4259 90.7255 30.5983C91.1073 30.1538 91.4891 29.7055 91.867 29.2611C91.4471 29.1155 91.157 29.1691 90.863 29.2266C89.8055 29.4335 88.7518 29.6596 87.6943 29.8358C86.7666 29.9891 86.1328 29.6749 86.0488 28.6327L86.0565 28.6366Z" fill="#FCFBFA"/>
<path d="M24.1333 19.4981C24.1065 18.6782 24.454 18.1265 25.2939 18.0307C26.0612 17.9426 26.3017 18.5211 26.5308 19.115C26.714 19.5862 26.9698 20.0307 27.1913 20.4866C27.344 20.9464 27.4967 21.4023 27.6494 21.8621L27.9128 21.8353C28.0808 20.6667 28.245 19.4943 28.4129 18.3257C28.4778 18.1494 28.5046 17.9387 28.6153 17.8008C28.894 17.456 29.2261 16.8698 29.5086 16.8813C29.9935 16.9042 30.589 17.2108 30.9021 17.5901C31.4137 18.2108 31.7382 18.9885 32.1429 19.7012C32.3376 20.0613 32.5284 20.4253 32.7232 20.7855L32.9637 20.728C33.0935 19.5939 33.2271 18.4598 33.3569 17.3257C33.4867 16.9732 33.5172 16.4675 33.7692 16.3027C34.1701 16.0422 34.7542 15.8429 35.197 15.9349C35.4796 15.9924 35.8499 16.6437 35.8193 17C35.6666 18.9502 35.4032 20.8927 35.1818 22.8391C35.1283 23.3104 35.0558 23.7855 35.0672 24.2529C35.0863 25.1265 34.7275 25.7088 33.9028 25.9962C33.4638 25.6782 32.914 25.4368 32.601 25.023C31.8413 24.0077 31.1922 22.9081 30.3256 21.5824C30.1844 22.7395 30.0775 23.5977 29.9706 24.456C29.8026 25.1456 29.6995 25.8659 29.4361 26.5173C29.3216 26.8046 28.8787 26.9617 28.5886 27.1763C28.1495 26.8698 27.5158 26.6667 27.3058 26.2452C26.191 24.023 25.1831 21.751 24.1371 19.4943L24.1333 19.4981Z" fill="#FCFBFA"/>
<path d="M53.7431 18.9162C53.8195 19.8357 53.8309 20.717 52.6016 20.8741C51.8419 20.8166 51.5098 20.307 51.338 19.648C50.7386 17.3491 50.1468 15.0503 49.5513 12.7514C49.4635 11.2763 50.708 10.8779 51.7045 11.579C52.6818 12.2687 53.6744 12.9354 54.6632 13.6135C55.0488 13.9813 55.4344 14.3491 55.82 14.717L56.0758 14.5637C55.9994 13.602 55.9231 12.6403 55.8467 11.6786C55.9421 10.5867 56.3239 10.1269 57.1218 10.1461C57.9197 10.1652 58.2786 10.6557 58.3168 11.7553C58.3779 13.6863 58.4351 15.6173 58.5115 17.5484C58.5458 18.4028 58.2099 18.9507 57.3509 19.1269C56.9119 18.8396 56.4346 18.5982 56.0452 18.2495C54.9534 17.2763 53.9035 16.2572 52.8345 15.2572L52.5291 15.4488C52.8765 16.5445 53.2239 17.6365 53.5713 18.7323L53.7508 18.9315L53.7431 18.92V18.9162Z" fill="#FCFBFA"/>
<path d="M21.9485 31.1913C22.2005 32.6319 22.0859 32.8695 20.9483 33.2679C20.1198 33.1185 19.7533 32.6128 19.6006 31.789C19.131 29.2756 18.5965 26.7775 18.085 24.2718C18.2224 22.7583 19.0814 22.3637 20.3222 23.2181C22.0096 24.379 23.7047 25.5285 25.3959 26.6817C26.0449 27.3829 27.2437 27.5055 27.4728 28.6549C27.385 29.3484 27.0223 29.7775 26.3122 29.8809C26.0717 29.8082 25.7739 29.8005 25.5983 29.6472C24.6744 28.8503 23.8306 29.0764 22.9869 29.7622C22.8151 29.9001 22.5441 29.9537 22.4372 30.1223C22.231 30.4518 22.105 30.8311 21.9485 31.1913Z" fill="#FCFBFA"/>
<path d="M77.5585 24.2334C77.8334 23.766 78.0014 23.1414 78.4022 22.8579C80.4753 21.3981 82.5865 19.992 84.7358 18.6472C85.1138 18.4096 85.8621 18.3483 86.1904 18.5706C86.5225 18.7966 86.7554 19.5169 86.6752 19.9537C86.198 22.5744 85.6101 25.1759 85.0833 27.7851C84.9458 28.4633 84.6099 28.8732 83.9112 28.9499C82.9262 28.6242 82.5292 28.1453 82.7926 27.2066C83.0408 26.3177 82.7392 25.8273 82.0443 25.4096C81.8267 25.2794 81.5977 25.1453 81.4373 24.9575C80.8723 24.2985 80.3493 24.3522 79.6506 24.8311C78.6275 25.5322 78.1732 25.3522 77.5547 24.2296L77.5585 24.2334Z" fill="#FCFBFA"/>
<path d="M9.11009 30.9576C9.38497 30.5323 9.61022 30.0649 9.94236 29.6894C11.3931 28.0495 12.3743 27.904 14.1648 28.9959C15.856 30.0304 16.6539 31.9308 15.9209 33.5438C15.5506 34.3561 15.6499 34.7622 16.4516 35.0534C16.6272 35.1185 16.8257 35.2143 16.925 35.3599C17.2037 35.7507 17.7 36.2411 17.616 36.5668C17.5091 37.0074 16.9364 37.3292 16.5661 37.7047C14.0617 36.4212 11.5458 35.1568 9.06046 33.8388C8.47635 33.5285 8.46108 32.9346 8.67869 32.3254C8.81231 31.9499 8.86576 31.5476 8.95357 31.1568L8.94593 31.1683L9.11391 30.9576H9.11009ZM13.1912 33.563C13.4928 33.0342 13.9052 32.5821 13.8135 32.425C13.4661 31.835 12.9546 31.3369 12.5041 30.8082C12.1108 31.176 11.7176 31.5438 11.3244 31.9116C11.8818 32.4059 12.4392 32.9001 13.1912 33.563Z" fill="#FCFBFA"/>
<path d="M65.7194 18.157C65.3643 19.0152 65.1314 19.9232 65.8873 20.6321C66.6013 21.3026 67.5251 21.4405 68.4567 21.019C69.1324 20.7125 69.7547 20.6282 70.1976 21.36C70.587 22.0037 70.3426 22.6665 69.5638 23.2029C69.434 23.2911 69.3042 23.3792 69.1744 23.4673C68.8957 23.5171 68.6132 23.5669 68.3345 23.6206C65.4063 24.1531 62.9782 22.1148 63.0928 19.157C63.1233 18.3754 63.3753 17.6014 63.5242 16.8236C65.2765 14.2796 67.4335 13.5286 70.2052 14.5056C70.503 14.6091 70.8427 14.701 71.0527 14.9118C71.4612 15.3179 72.1102 15.8275 72.0759 16.2451C72.0339 16.7164 71.3505 17.1301 70.9458 17.5669C70.5564 17.36 70.1632 17.157 69.7776 16.9424C68.0253 15.9807 66.208 16.5248 65.727 18.1493L65.7194 18.157Z" fill="#FBFBF9"/>
<path d="M42.2977 16.6016C43.0536 17.1917 44.0347 17.6361 44.5158 18.3986C45.4778 19.9197 45.0693 21.2377 43.6148 22.3756C41.5876 22.8698 39.7627 22.2147 38.8846 20.6821C38.9343 20.4254 38.9839 20.1725 39.0335 19.9158C39.5451 19.138 40.1636 19.0882 40.8889 19.617C41.1447 19.8047 41.4081 20.0116 41.7021 20.0997C41.9312 20.1687 42.2099 20.0691 42.4657 20.0461C42.3855 19.7932 42.3778 19.4216 42.2061 19.3066C41.767 19.0154 41.2631 18.8047 40.7629 18.6285C38.8846 17.9656 38.2929 17.1572 38.2891 15.1802C39.0984 13.3258 40.95 12.322 42.6909 12.7817C43.3552 12.958 43.8629 13.2721 43.8629 14.0538C43.8629 14.8239 43.4125 15.1879 42.71 15.3181C42.4046 15.2453 42.0724 15.0614 41.7976 15.1265C41.4349 15.2147 41.118 15.4982 40.782 15.6974C41.0416 15.9311 41.2783 16.1993 41.5723 16.3833C41.7746 16.5135 42.0533 16.5288 42.2939 16.594L42.2977 16.6016Z" fill="#FCFBF9"/>
<path d="M98.3576 36.6048C98.9494 35.4669 99.6404 34.5014 101.145 34.5742C102.828 34.6585 104.619 36.6585 104.447 38.3443C104.374 39.0569 104.008 39.5129 103.294 39.6623C102.435 39.5589 102.011 39.0838 101.981 38.2025C101.973 37.9458 101.82 37.6546 101.649 37.4477C101.503 37.2753 101.24 37.2064 101.026 37.0914C100.904 37.3251 100.694 37.5474 100.671 37.7926C100.618 38.3596 100.652 38.9382 100.648 39.509C100.476 40.6508 99.732 41.4171 98.9341 42.1451C96.6282 42.85 95.3034 42.2408 94.8758 40.1834C94.746 39.5589 94.8949 38.873 94.914 38.2179C95.0324 37.9267 95.124 37.6202 95.2729 37.3405C95.7501 36.4439 96.6206 36.4401 97.5406 37.3098C97.4185 37.8922 97.239 38.4707 97.1932 39.0608C97.1665 39.3788 97.3612 39.7121 97.4605 40.0378C97.7086 39.8041 98.1324 39.5972 98.1744 39.329C98.3118 38.4286 98.3118 37.509 98.3653 36.5972L98.3576 36.6048Z" fill="#FCFBF9"/>
<path d="M74.5307 15.5936C74.7903 15.1952 75.0155 14.7737 75.3095 14.4021C75.718 13.8887 76.2334 13.5668 76.8748 14.0074C77.4742 14.4174 77.6536 14.9576 77.2985 15.6588C76.4052 17.4136 75.5386 19.1798 74.6032 21.0572C75.1377 21.2986 75.6531 21.4212 76.012 21.7277C76.4052 22.0649 76.848 22.5438 76.9168 23.0151C77.0008 23.609 76.535 24.0649 75.8631 24.1415C74.7445 23.7124 73.6106 23.3216 72.5111 22.8427C71.8468 22.5553 71.4765 22.0304 71.801 21.2488C72.7096 19.3638 73.6221 17.4825 74.5307 15.5975V15.5936Z" fill="#FBFAFA"/>
<path d="M8.95398 31.1572C8.86617 31.548 8.81272 31.9503 8.6791 32.3257C8.46149 32.9349 8.47676 33.5288 9.06087 33.8391C11.5462 35.1572 14.0621 36.4215 16.5665 37.705C16.4253 39.1533 15.7381 39.5441 14.4706 38.8775C12.4243 37.8008 10.3818 36.7165 8.33932 35.6246C7.36198 35.1035 7.17873 34.6169 7.65595 33.6093C8.05299 32.774 8.51876 31.9694 8.95398 31.1533V31.1572Z" fill="#F1CB7C"/>
<path d="M63.517 16.8311C63.3681 17.6088 63.1161 18.3828 63.0856 19.1644C62.9711 22.1222 65.3991 24.1606 68.3273 23.628C68.606 23.5782 68.8886 23.5284 69.1672 23.4747C69.194 24.2985 68.6366 24.6471 67.9914 24.8885C66.2772 25.536 64.6623 25.2678 63.265 24.1337C61.841 22.9805 61.4325 21.3789 61.9823 19.6778C62.3068 18.6701 62.9902 17.7774 63.5132 16.8311H63.517Z" fill="#F0CB7D"/>
<path d="M77.5578 24.2333C78.1763 25.3559 78.6267 25.5398 79.6537 24.8349C80.3524 24.3559 80.8754 24.3023 81.4404 24.9613C81.6008 25.149 81.8298 25.2831 82.0474 25.4134C82.7423 25.831 83.0439 26.3214 82.7957 27.2103C82.5323 28.149 82.9255 28.628 83.9143 28.9536C83.6814 29.4326 83.5707 30.0954 83.1851 30.3521C82.4216 30.8617 81.4137 30.2525 81.6046 29.3483C81.9329 27.8157 81.0777 27.149 80.0546 26.3981C79.5163 26.0034 79.165 25.9919 78.6344 26.3444C77.554 27.0647 77.0195 27.0264 76.6034 26.3023C76.1223 25.4709 76.4583 24.7429 77.5616 24.2295L77.5578 24.2333Z" fill="#F1CB7C"/>
<path d="M49.5511 12.751C50.1466 15.0498 50.7384 17.3487 51.3378 19.6475C51.5096 20.3065 51.8417 20.8161 52.6014 20.8736C52.674 21.6169 52.5213 22.2222 51.6584 22.3717C50.8071 22.5173 50.3337 22.0996 50.1275 21.3104C49.5587 19.1265 48.9479 16.954 48.4477 14.7548C48.1576 13.4751 48.4592 13.0575 49.5472 12.7548L49.5511 12.751Z" fill="#F1CB7C"/>
<path d="M18.0856 24.2764C18.5972 26.7821 19.1317 29.2802 19.6012 31.7936C19.7539 32.6174 20.1243 33.1269 20.9489 33.2725C21.052 34.0465 20.7809 34.6212 19.9716 34.7285C19.1431 34.8358 18.6659 34.3377 18.5132 33.5599C17.994 30.9584 17.49 28.3492 16.9937 25.7438C16.8296 24.8741 17.2953 24.445 18.0894 24.2802L18.0856 24.2764Z" fill="#F0CB7D"/>
<path d="M27.4732 28.6589C27.2441 27.5095 26.0453 27.3907 25.3963 26.6857C24.6519 24.9424 23.8692 23.2144 23.1782 21.4482C22.7583 20.3754 23.0332 19.9271 24.1288 19.4941C25.1749 21.7508 26.1828 24.0229 27.2976 26.2451C27.5075 26.6666 28.1413 26.8696 28.5803 27.1761C28.5536 27.9271 28.2787 28.4941 27.4694 28.6551L27.4732 28.6589Z" fill="#F1CB7D"/>
<path d="M89.0035 33.0771C89.1601 34.2917 89.7022 34.6748 90.8551 34.4028C93.2183 33.8396 95.5815 33.284 97.9408 32.7246C98.1012 33.648 97.624 34.0388 96.7841 34.2342C94.4782 34.7706 92.1799 35.33 89.8892 35.92C89.1868 36.1001 88.5798 36.1307 88.1064 35.4871C87.6215 34.8281 87.9804 34.2917 88.3851 33.7782C88.5798 33.533 88.7936 33.307 88.9997 33.0733L89.0035 33.0771Z" fill="#F0CB7E"/>
<path d="M94.914 38.2256C94.895 38.8846 94.7461 39.5666 94.8759 40.1911C95.3035 42.2486 96.6282 42.8539 98.9341 42.1528C98.5103 43.3367 97.4147 44.0378 96.0517 43.988C94.9331 43.9497 93.9023 43.2639 93.7687 42.0838C93.6504 41.0264 93.8909 39.9152 94.0818 38.8463C94.1276 38.5972 94.6239 38.4287 94.9102 38.2256H94.914Z" fill="#F0CB7D"/>
<path d="M53.5715 18.728C53.2241 17.6322 52.8767 16.5403 52.5293 15.4445L52.8347 15.2529C53.9037 16.2529 54.9536 17.2721 56.0454 18.2453C56.431 18.5901 56.912 18.8315 57.3511 19.1227C57.3893 19.774 57.2022 20.3104 56.5494 20.5671C55.8965 20.8238 55.4231 20.5135 54.9803 20.046C54.5985 19.6399 54.1595 19.2874 53.7433 18.9119L53.751 18.9234C53.6899 18.8583 53.6326 18.7893 53.5715 18.7242V18.728Z" fill="#F1CC7D"/>
<path d="M25.9957 45.1724C26.5798 45.6858 27.1601 46.2031 27.4961 46.4981C26.6982 47.364 25.8697 48.2644 25.0336 49.1724C24.7397 48.7088 24.3693 48.1188 23.999 47.5288V47.5134C24.7358 47.1073 24.0334 46.5556 24.1479 46.0881C24.1479 45.954 24.1479 45.8199 24.1441 45.682V44.1533C24.3655 44.1188 24.648 43.9809 24.7931 44.069C25.068 44.2376 25.2627 44.5326 25.4918 44.774L25.9957 45.1686V45.1724Z" fill="#A79DDE"/>
<path d="M85.2088 47.5289C84.9072 48.1113 84.6056 48.6898 84.2963 49.2875C83.3877 48.4216 82.5287 47.6017 81.6201 46.732C82.1737 46.2607 82.7349 45.7856 83.2961 45.3067C83.5748 45.0078 83.8497 44.7128 84.1284 44.4139L84.6209 43.958L85.2011 43.9695C85.2202 44.2185 85.2431 44.4714 85.2622 44.7205C85.2622 45.05 85.2584 45.3756 85.2546 45.7051C85.2393 46.3067 85.2202 46.912 85.205 47.5136V47.5289H85.2088Z" fill="#A79DDE"/>
<path d="M38.8884 20.6826C39.7664 22.2152 41.5913 22.8704 43.6185 22.3761C43.2749 23.4336 42.5763 23.9776 41.4997 24.0964C40.32 24.2267 39.3045 23.7899 38.4302 23.0964C38.0752 22.8129 37.8156 22.2228 37.7889 21.7554C37.7545 21.1271 38.2279 20.7439 38.8884 20.6826Z" fill="#F0CB7D"/>
<path d="M71.8012 21.2455C71.4767 22.0271 71.847 22.552 72.5113 22.8394C73.6108 23.3183 74.7446 23.7091 75.8632 24.1382C75.7105 25.5482 75.1684 25.893 73.8437 25.4026C73.1641 25.1497 72.496 24.8738 71.8279 24.598C70.61 24.0961 70.3848 23.5214 70.9422 22.3145C71.114 21.9428 71.3087 21.5788 71.4919 21.2148C71.595 21.2225 71.7019 21.234 71.805 21.2417L71.8012 21.2455Z" fill="#F1CB7C"/>
<path d="M86.057 28.6357C86.1371 29.6779 86.7747 29.9921 87.7024 29.8388C88.7637 29.6626 89.8174 29.4327 90.8711 29.2296C91.1613 29.1721 91.4514 29.1185 91.8752 29.2641C91.4934 29.7085 91.1116 30.1568 90.7337 30.6013C89.6838 30.8082 88.6301 31.0151 87.5802 31.2258C87.3932 31.2641 87.2099 31.3292 87.0228 31.3369C86.2517 31.3714 85.3239 31.6549 84.9956 30.6357C84.6902 29.697 85.3621 29.1223 86.0608 28.6357H86.057Z" fill="#F1CB7D"/>
<path d="M29.9658 24.4556C30.0727 23.5974 30.1758 22.7391 30.3209 21.582C31.1875 22.9077 31.8365 24.0073 32.5962 25.0226C32.9093 25.4403 33.4552 25.6778 33.8981 25.9958C33.9897 26.7583 33.585 27.3062 32.9131 27.379C32.4932 27.4249 31.9014 27.1108 31.5998 26.7659C30.9813 26.061 30.5041 25.2295 29.9658 24.4479V24.4556Z" fill="#F1CC7D"/>
<path d="M38.2931 15.1836C38.2931 17.1568 38.8887 17.9652 40.767 18.6319C41.2671 18.8081 41.7711 19.0227 42.2101 19.31C42.3819 19.425 42.3895 19.7928 42.4697 20.0495C42.2139 20.0725 41.9352 20.1721 41.7062 20.1031C41.4122 20.015 41.1488 19.8081 40.893 19.6204C40.1676 19.0878 39.5491 19.1376 39.0376 19.9192C37.1707 19.0801 36.5331 17.5744 37.4227 15.969C37.6021 15.6472 37.9991 15.4441 38.2931 15.1874V15.1836Z" fill="#F1CD7E"/>
<path d="M65.7197 18.1569C66.2008 16.5286 68.018 15.9883 69.7703 16.95C70.1559 17.1608 70.5492 17.3638 70.9386 17.5745C70.7706 18.9194 69.9612 19.3791 68.8808 18.6818C67.8844 18.0343 66.8383 17.9232 65.7197 18.1608V18.1569Z" fill="#F1CC7D"/>
<path d="M40.9688 31.5173C41.3162 30.456 41.6598 29.3947 42.0072 28.3334L42.3202 28.2529C42.8585 29.2912 43.3968 30.3334 43.9313 31.3717C43.8931 31.4215 43.874 31.4828 43.8817 31.5479C43.1029 31.7472 42.3202 31.9273 41.549 32.1571C41.1558 32.2759 40.9458 32.2453 40.9878 31.774C40.9802 31.6859 40.9764 31.6016 40.9688 31.5173Z" fill="#A79DDE"/>
<path d="M68.8149 32.0921C67.7269 31.9388 66.6427 31.7856 65.4248 31.617C65.6577 30.8852 65.818 30.3871 65.9784 29.8852C66.0967 29.7396 66.2151 29.5902 66.3334 29.4446C66.5816 29.0653 66.8335 28.686 67.0817 28.3066H67.3604C67.5895 29.1304 67.7803 29.9733 68.0667 30.7779C68.2347 31.2492 68.5592 31.663 68.8149 32.1036V32.0959V32.0921Z" fill="#A79DDE"/>
<path d="M100.648 39.5133C100.648 38.9424 100.614 38.3639 100.671 37.7969C100.694 37.5555 100.9 37.3294 101.026 37.0957C101.24 37.2106 101.503 37.2796 101.648 37.452C101.82 37.6551 101.969 37.9463 101.98 38.2068C102.011 39.088 102.435 39.5593 103.294 39.6666C103.011 41.0076 102.003 41.6129 101.232 40.8505C100.911 40.5325 100.839 39.9693 100.652 39.5172L100.648 39.5133Z" fill="#F1CC7D"/>
<path d="M21.9492 31.1915C22.1057 30.8313 22.2317 30.452 22.4379 30.1225C22.5448 29.9539 22.8158 29.9003 22.9876 29.7624C23.8352 29.0765 24.6789 28.8505 25.599 29.6474C25.7746 29.7968 26.0685 29.8045 26.3129 29.8811C26.2365 31.1915 25.4997 31.793 24.5185 31.1723C23.5718 30.567 22.8006 30.5899 21.9492 31.1953V31.1915Z" fill="#F0CB7E"/>
<path d="M55.8466 11.6816C55.9229 12.6433 55.9993 13.605 56.0756 14.5667L55.8199 14.72C55.4343 14.3521 55.0487 13.9843 54.6631 13.6165C54.686 12.7429 54.6135 11.8119 55.8466 11.6816Z" fill="#F0CD83"/>
<path d="M98.3575 36.6055C98.304 37.5173 98.304 38.4369 98.1666 39.3373C98.1246 39.6016 97.7008 39.8124 97.4527 40.0461C97.3572 39.7204 97.1625 39.3832 97.1855 39.0691C97.2351 38.479 97.4107 37.9005 97.5329 37.3181C97.8077 37.0806 98.0788 36.843 98.3537 36.6093L98.3575 36.6055Z" fill="#F1D086"/>
<path d="M71.8013 21.2452C71.6983 21.2375 71.5914 21.226 71.4883 21.2183C72.3282 19.4751 73.1643 17.7279 74.0233 15.9961C74.1111 15.8237 74.3554 15.7279 74.531 15.5977C73.6224 17.4789 72.71 19.3639 71.8013 21.249V21.2452Z" fill="#E4C89A"/>
<path d="M28.4092 18.3262C28.2412 19.4948 28.077 20.6672 27.9091 21.8357L27.6456 21.8626C27.4929 21.4028 27.3402 20.9469 27.1875 20.4871C27.2982 19.9967 27.3288 19.4679 27.5502 19.035C27.7029 18.7323 28.1152 18.5599 28.413 18.33L28.4092 18.3262Z" fill="#F0CD83"/>
<path d="M33.3527 17.3301C33.2229 18.4642 33.0893 19.5983 32.9595 20.7324L32.719 20.7898C32.5243 20.4297 32.3334 20.0657 32.1387 19.7056C32.2227 19.2113 32.215 18.6711 32.425 18.2381C32.6006 17.8703 33.032 17.6289 33.3527 17.3339V17.3301Z" fill="#F0CD83"/>
<path d="M42.297 16.6013C42.0526 16.5361 41.7778 16.517 41.5754 16.3905C41.2853 16.2066 41.0486 15.9384 40.7852 15.7047C41.1211 15.5055 41.438 15.222 41.8007 15.1338C42.0717 15.0687 42.4077 15.2526 42.7131 15.3254C42.5757 15.7507 42.4344 16.1798 42.297 16.6051V16.6013Z" fill="#F0CD83"/>
<path d="M25.4918 44.7738C25.2627 44.5325 25.0642 44.2374 24.7931 44.0689C24.6481 43.9807 24.3656 44.1187 24.1479 44.1531C23.9723 44.1531 23.7967 44.1608 23.6211 44.1608L23.896 42.6589L24.2243 42.5439C24.7282 43.1378 25.2322 43.7317 25.7361 44.3294C25.6559 44.4788 25.5758 44.6244 25.4918 44.7738Z" fill="#FDFDFD"/>
<path d="M85.2664 44.7242C85.2473 44.4752 85.2244 44.2223 85.2053 43.9733C85.0831 43.6016 84.9609 43.23 84.835 42.8545C85.0831 42.9311 85.5031 42.9503 85.5489 43.092C85.6978 43.5518 85.713 44.0576 85.7818 44.548L85.2664 44.7281V44.7242Z" fill="#FDFDFD"/>
<path d="M91.4885 26.5942L90.9158 26.7589L90.7822 26.552C91.3854 26.0386 91.9886 25.529 92.5918 25.0156C92.2253 25.5405 91.855 26.0693 91.4885 26.5942Z" fill="#E4C89A"/>
<path d="M85.2051 47.5135C85.2203 46.912 85.2394 46.3066 85.2547 45.7051L85.7625 45.8813C85.5754 46.4254 85.3921 46.9694 85.2051 47.5135Z" fill="#FDFDFD"/>
<path d="M85.7626 45.881C85.5947 45.8236 85.4267 45.7623 85.2549 45.7048C85.2549 45.3791 85.2587 45.0496 85.2625 44.7201L85.7779 44.54C85.7703 44.9845 85.7664 45.4328 85.7588 45.8772L85.7626 45.881Z" fill="#F0EDF6"/>
<path d="M24.1481 46.0879C24.0336 46.5553 24.736 47.107 24.003 47.5132C23.8771 47.0994 23.7511 46.6818 23.6289 46.268L24.1481 46.0879Z" fill="#FDFDFD"/>
<path d="M24.1438 44.5594C24.1438 44.9349 24.1438 45.3104 24.1438 45.6859C23.9643 45.6859 23.7849 45.6935 23.6055 45.6935C23.6055 45.3142 23.6055 44.9311 23.6055 44.5518L24.1438 44.5594Z" fill="#FDFDFD"/>
<path d="M84.8349 42.8545L85.2052 43.9733C85.0105 43.9694 84.8158 43.9656 84.6249 43.9618C84.4417 43.9043 84.2584 43.8468 84.0752 43.7894L84.8387 42.8583L84.8349 42.8545Z" fill="#F0EDF6"/>
<path d="M84.128 44.418C83.8493 44.7168 83.5744 45.0119 83.2957 45.3107C83.2957 45.1038 83.2919 44.8931 83.2881 44.6862C83.4675 44.4985 83.6469 44.3069 83.8264 44.1191C83.9256 44.2188 84.0249 44.3184 84.128 44.418Z" fill="#F0EDF6"/>
<path d="M25.4922 44.7735C25.5724 44.6241 25.6525 44.4785 25.7365 44.3291C25.9274 44.513 26.1221 44.6969 26.313 44.8808C26.2099 44.9766 26.103 45.0724 25.9999 45.1682C25.832 45.0379 25.664 44.9038 25.496 44.7735H25.4922Z" fill="#F0EDF6"/>
<path d="M23.6055 45.6932C23.7849 45.6932 23.9643 45.6855 24.1438 45.6855C24.1438 45.8196 24.1438 45.9537 24.1476 46.0917L23.6284 46.2718C23.6207 46.0802 23.6131 45.8886 23.6055 45.697V45.6932Z" fill="#F0EDF6"/>
<path d="M84.1288 44.4174C84.0295 44.3178 83.9302 44.2182 83.8271 44.1186C83.9073 44.0075 83.9913 43.8963 84.0715 43.7891C84.2547 43.8465 84.438 43.904 84.6212 43.9615C84.4571 44.1147 84.2929 44.2642 84.1288 44.4174Z" fill="#FDFDFD"/>
<path d="M24.1438 44.5595L23.6055 44.5519C23.6093 44.4216 23.6131 44.2952 23.6207 44.1649C23.7964 44.1649 23.972 44.1572 24.1476 44.1572C24.1476 44.2913 24.1476 44.4254 24.1476 44.5595H24.1438Z" fill="#F0EDF6"/>
<path d="M67.9416 61.9729C67.9683 64.0304 67.6476 65.9921 66.384 67.6741C64.5782 70.0726 62.047 70.6434 59.3174 70.0266C57.8475 69.6971 56.5113 68.7737 55.0949 68.1722C54.8277 68.0572 54.3658 68.0726 54.1481 68.2373C52.4378 69.5247 50.548 70.1492 48.4063 70.2182C44.6076 70.3446 42.1185 67.6013 41.5573 64.1262C40.4349 57.199 45.1192 49.8388 50.5251 47.291C53.5908 45.8465 56.5839 45.9461 59.5197 47.6856C64.1201 50.4136 66.7848 54.4749 67.7622 59.6933C67.9034 60.4366 67.8843 61.2143 67.9416 61.9729ZM52.8577 47.6128L52.8463 47.4289C52.6249 47.471 52.3767 47.4634 52.1935 47.5668C47.6618 50.2067 44.2182 53.812 42.5117 58.8618C42.1452 59.95 42.0383 61.1607 42.0116 62.3178C42.0001 62.812 42.4812 63.7316 42.7675 63.7431C43.5654 63.7775 43.6914 62.95 43.825 62.2948C44.1342 60.7431 44.3213 59.1569 44.7527 57.6396C45.5888 54.7048 47.6084 52.5017 49.6241 50.3484C50.5862 49.3254 51.7697 48.517 52.8539 47.609L52.8577 47.6128Z" fill="#F6CD76"/>
<path d="M81.8606 57.0081C81.4788 58.0234 81.2841 59.1766 80.6733 60.0272C79.1882 62.0923 76.6112 62.1345 74.8436 60.2839C72.4842 57.8165 72.7171 53.7743 75.3246 51.9736C76.4699 51.1805 78.0428 51.1805 79.1423 52.031C80.7305 53.2571 81.7689 54.7858 81.5895 56.9199L81.8606 57.0081ZM77.3175 52.3299C75.527 52.3989 73.6295 54.4678 73.7937 56.1996C73.8166 56.4602 74.0877 56.6977 74.2442 56.9506C74.4389 56.7628 74.7214 56.6134 74.8092 56.3874C75.3666 54.9506 76.0271 53.5943 77.2488 52.5943C77.306 52.5483 77.2946 52.4257 77.3175 52.3299Z" fill="#F5CD78"/>
<path d="M27.7372 57.3451C27.4586 54.4179 29.8294 51.3911 32.0895 51.4102C33.544 51.4256 35.0749 52.3834 35.6132 53.7359C36.5295 56.0539 36.2699 58.2072 34.6588 60.1535C33.6509 61.3681 32.3033 61.8279 30.822 61.506C29.501 61.2187 28.4855 60.4026 28.1648 58.9581C28.245 58.8049 28.3252 58.6516 28.4054 58.5022C28.9856 58.8509 29.23 58.644 29.3903 58.0156C29.8866 56.0424 30.005 53.9237 31.5435 52.2608C31.1159 52.28 30.7036 52.3375 30.4593 52.5712C29.1002 53.87 27.9854 55.3068 28.1992 57.3604L27.7411 57.3489L27.7372 57.3451Z" fill="#F5CD77"/>
<path d="M48.2187 40.5674C48.4172 42.4448 46.4778 44.8739 43.9848 44.7743C41.5835 44.6785 39.8082 42.9276 39.8273 40.4908C39.8426 38.2456 41.7973 36.395 44.0573 36.2916C46.3671 36.1843 48.4706 38.5827 48.2187 40.5636V40.5674ZM43.458 37.0808C41.5529 37.2571 39.7509 40.1651 40.6939 41.9774C42.2172 40.6172 41.6789 38.1766 43.458 37.0808Z" fill="#F5CE79"/>
<path d="M64.2228 36.4978C65.4598 36.3752 66.6204 36.3484 67.739 37.1683C69.1172 38.1836 69.7242 39.4672 69.5104 41.0993C69.2775 42.9039 68.2238 44.1606 66.4715 44.6128C64.8909 45.0189 63.4364 44.72 62.2529 43.3905C61.5657 42.6204 61.2488 41.8082 61.2794 40.812C61.3748 40.7162 61.4702 40.6204 61.5695 40.5285C61.9933 41.3254 62.2643 40.6779 62.4781 40.3905C63.2111 39.4097 63.906 38.402 64.5893 37.3867C64.6504 37.2947 64.4939 37.0534 64.4366 36.8771L64.2266 36.494L64.2228 36.4978Z" fill="#F5CD77"/>
<path d="M49.1043 73.9919C49.4632 74.0379 49.8411 74.0264 50.1809 74.1337C53.1358 75.0762 56.0526 75.4134 58.9235 73.8233C59.0991 73.7275 59.5611 73.8157 59.6336 73.9574C59.7329 74.1413 59.6718 74.5551 59.5191 74.7045C59.2328 74.9804 58.8548 75.2065 58.4768 75.3367C55.6174 76.3061 52.7693 76.3635 49.9824 75.0685C49.6083 74.8961 49.3067 74.5704 48.9707 74.3176L49.1043 73.9957V73.9919Z" fill="#F3D081"/>
<path d="M64.2231 36.498C64.2918 36.6245 64.3644 36.7548 64.4331 36.8812C64.1582 36.9885 63.8108 37.0268 63.6199 37.2184C62.9175 37.9118 62.2646 38.659 61.5927 39.3831L61.3369 39.3678C61.6576 37.7624 62.7113 36.9003 64.2231 36.498Z" fill="#F2D58F"/>
<path d="M28.4044 58.5018C28.3243 58.6551 28.2441 58.8083 28.1639 58.9578C28.0188 58.4214 27.8776 57.8811 27.7363 57.3447C27.889 57.3486 28.0417 57.3524 28.1945 57.3562C28.2632 57.7394 28.3357 58.1187 28.4044 58.5018Z" fill="#F3D389"/>
<path d="M61.5652 40.5286C61.4697 40.6244 61.3743 40.7202 61.275 40.8122C61.2407 40.59 61.2063 40.3677 61.1758 40.1455C61.3056 40.1455 61.4316 40.1455 61.5614 40.1455V40.5248L61.5652 40.5286Z" fill="#F2D58F"/>
<path d="M61.5614 40.1459C61.4316 40.1459 61.3056 40.1459 61.1758 40.1459C61.2292 39.8853 61.2827 39.6248 61.3323 39.3643C61.4163 39.3681 61.5003 39.3758 61.5843 39.3796C61.5766 39.6363 61.5652 39.8892 61.5576 40.1459H61.5614Z" fill="#F5CD77"/>
<path d="M43.8824 31.5483C43.8786 31.4832 43.8939 31.4257 43.932 31.3721C43.9168 31.4295 43.8977 31.487 43.8824 31.5483Z" fill="#F0EDF6"/>
<path d="M13.1911 33.5634C12.4428 32.9005 11.8854 32.4063 11.3242 31.912C11.7174 31.5442 12.1107 31.1764 12.5039 30.8086C12.9544 31.3412 13.466 31.8354 13.8134 32.4254C13.905 32.5787 13.4927 33.0346 13.1911 33.5634Z" fill="#F1CD7E"/>
<path d="M52.8611 47.6127C51.7769 48.5207 50.5896 49.3292 49.6313 50.3522C47.6117 52.5016 45.5922 54.7085 44.7599 57.6433C44.3285 59.1606 44.1414 60.7468 43.8322 62.2985C43.7024 62.9575 43.5726 63.7813 42.7747 63.7468C42.4883 63.7353 42.0073 62.8158 42.0188 62.3215C42.0455 61.1644 42.1524 59.9537 42.5189 58.8656C44.2254 53.8119 47.669 50.2066 52.2006 47.5705C52.3839 47.4633 52.6359 47.4748 52.8535 47.4326L52.8649 47.6165L52.8611 47.6127Z" fill="#F8E4B4"/>
<path d="M77.3179 52.3291C77.295 52.4211 77.3026 52.5475 77.2492 52.5935C76.0275 53.5935 75.367 54.9536 74.8096 56.3866C74.7218 56.6126 74.4393 56.7659 74.2446 56.9498C74.0881 56.7007 73.8208 56.4632 73.7941 56.1988C73.63 54.467 75.5274 52.3942 77.3179 52.3291Z" fill="#F7E4B1"/>
<path d="M28.4053 58.502C28.3366 58.1189 28.2641 57.7396 28.1953 57.3565C27.9815 55.3028 29.0963 53.866 30.4554 52.5672C30.6998 52.3335 31.1121 52.276 31.5397 52.2568C30.0011 53.9197 29.8828 56.0384 29.3865 58.0116C29.2299 58.64 28.9856 58.8507 28.4015 58.4982L28.4053 58.502Z" fill="#F8E4B4"/>
<path d="M43.4579 37.084C41.6789 38.1836 42.221 40.6204 40.6939 41.9805C39.7509 40.1644 41.5529 37.2564 43.4579 37.084Z" fill="#F7E4B1"/>
<path d="M61.5614 40.1461C61.5691 39.8893 61.5805 39.6365 61.5882 39.3798C62.2601 38.6518 62.9129 37.9085 63.6154 37.2112C63.8101 37.0196 64.1537 36.9813 64.4286 36.874C64.4858 37.0464 64.6423 37.2878 64.5813 37.3798C63.9017 38.3989 63.2031 39.4028 62.4701 40.3836C62.2563 40.6671 61.9852 41.3146 61.5614 40.5215C61.5614 40.3951 61.5614 40.2687 61.5576 40.1422L61.5614 40.1461Z" fill="#F8E4B4"/>
</g>
<defs>
<clipPath id="clip0_1820_12448">
<rect width="109" height="100" fill="white"/>
</clipPath>
</defs>
</svg>
